<?xml version="1.0" encoding="utf-8"?>
<!-- Generator: Adobe Illustrator 28.2.0, SVG Export Plug-In . SVG Version: 6.00 Build 0)  -->
<svg version="1.1" id="Layer_1" xmlns="http://www.w3.org/2000/svg" xmlns:xlink="http://www.w3.org/1999/xlink" x="0px" y="0px"
	 viewBox="0 0 2000 2000" style="enable-background:new 0 0 2000 2000;" xml:space="preserve">
<style type="text/css">
	.st0{fill:url(#SVGID_1_);}
	.st1{fill:url(#SVGID_00000119837964359157033410000008575266567106296238_);}
	.st2{fill:url(#SVGID_00000003791929690676095000000003831560576130767799_);}
	.st3{fill:url(#SVGID_00000093869335468370694710000005816302993127576241_);}
	.st4{fill:url(#SVGID_00000026854840192240283090000013498427404221818020_);}
	.st5{fill:url(#SVGID_00000103946291883122658890000015762925010263732646_);}
	.st6{fill:url(#SVGID_00000003081805778358387520000012436233289224863899_);}
	.st7{fill:url(#SVGID_00000060724964031155321130000005008711370104017537_);}
	.st8{fill:url(#SVGID_00000149380477802845313200000003662200712703101838_);}
	.st9{fill:url(#SVGID_00000093173840913404846690000002093771117879593872_);}
	.st10{fill:url(#SVGID_00000095300654942182468710000009025245694898487688_);}
	.st11{fill:url(#SVGID_00000018946601744353028390000012004026436552396958_);}
</style>
<g>
	<rect width="2000" height="2000"/>
</g>
<g>
	<linearGradient id="SVGID_1_" gradientUnits="userSpaceOnUse" x1="1078.9218" y1="1130.1427" x2="921.0776" y2="856.7485">
		<stop  offset="0" style="stop-color:#AA51BD"/>
		<stop  offset="1" style="stop-color:#2389D3"/>
	</linearGradient>
	<path class="st0" d="M1124.33,1009.89h32.64c-8.21,79.43-75.35,141.37-156.96,141.37c-81.62,0-148.76-61.94-156.97-141.37h11.18
		c0.34,3.09,0.77,6.14,1.31,9.17c10.67,60.51,58.34,108.2,118.87,118.88c8.32,1.46,16.88,2.22,25.62,2.22
		c8.72,0,17.29-0.76,25.6-2.22c60.52-10.69,108.21-58.36,118.88-118.88c0.49-2.85-1.4-5.54-4.23-6.05c-2.85-0.49-5.54,1.4-6.05,4.23
		c-9.87,56.17-54.25,100.53-110.42,110.42c-6.05,1.07-12.25,1.74-18.57,1.97c0,0,0,0,0,0v-10.89c0,0,0,0,0,0
		c32.55-1.33,61.92-15.07,83.46-36.6C1107.71,1063.09,1120.66,1037.94,1124.33,1009.89z M935.67,1000.46h18.75l-9.38-33.27
		L935.67,1000.46z M1157.81,993.45c0,2.01-0.05,4.02-0.12,6.01h-32.44h-10.43h-5.34c-2.88,0-5.22,2.34-5.22,5.22
		c0,2.88,2.34,5.22,5.22,5.22h4.31c-3.59,25.17-15.33,47.7-32.49,64.86c-20.54,20.52-48.75,33.31-79.98,33.65c-0.01,0-0.02,0-0.04,0
		c-0.41-0.1-0.83-0.18-1.28-0.18c-0.44,0-0.87,0.07-1.28,0.18c-0.01,0-0.03,0-0.05,0c-26.8-0.3-51.34-9.73-70.73-25.36
		c-2.25-1.82-5.53-1.46-7.35,0.78c-1.8,2.25-1.45,5.53,0.79,7.35v-0.02c20.24,16.33,45.68,26.47,73.39,27.6v10.88
		c-6.32-0.22-12.52-0.89-18.58-1.97c-56.17-9.88-100.53-54.25-110.4-110.42c-0.43-2.43-0.79-4.87-1.09-7.35h25.8
		c2.89,0,5.22-2.34,5.22-5.22c0-2.88-2.32-5.22-5.22-5.22h-26.65h-10.45h-11.12c-0.07-1.98-0.12-3.99-0.12-6.01
		c0-2.01,0.04-4.02,0.12-6.01h11.12h10.45h26.65c2.89,0,5.22-2.34,5.22-5.22c0-2.89-2.32-5.22-5.22-5.22h-25.8
		c0.3-2.47,0.66-4.93,1.09-7.36c1.43-8.15,3.59-16.05,6.41-23.64h19.72c2.88,0,5.22-2.34,5.22-5.22c0-2.88-2.34-5.22-5.22-5.22
		H876.6c18.51-39.43,55.41-68.57,99.61-76.33c2.83-0.51,4.72-3.2,4.23-6.05c-0.51-2.83-3.2-4.72-6.05-4.23
		c-50.45,8.9-91.95,43.49-110.55,89.81c-3.74,9.25-6.54,18.97-8.32,29.06c-0.54,3.02-0.97,6.08-1.31,9.18h-11.18
		c8.21-79.45,75.35-141.38,156.97-141.38c81.61,0,148.75,61.94,156.96,141.38h-32.64c-3.67-28.05-16.62-53.22-35.65-72.23
		c-21.53-21.55-50.91-35.29-83.46-36.62c0,0,0,0,0,0v-16.18c0-2.88-2.34-5.22-5.22-5.22c-2.88,0-5.22,2.34-5.22,5.22v16.16
		c-27.72,1.13-53.16,11.28-73.39,27.58c-2.24,1.82-2.59,5.1-0.79,7.35c1.82,2.24,5.1,2.59,7.35,0.79
		c19.39-15.63,43.93-25.08,70.73-25.38c0.01,0,0.03,0,0.04,0c0.41,0.1,0.84,0.18,1.28,0.18c0.44,0,0.87-0.07,1.28-0.18
		c0.01,0,0.02,0,0.03,0c31.24,0.34,59.45,13.13,79.98,33.67c17.15,17.15,28.9,39.69,32.49,64.86h-4.31c-2.88,0-5.22,2.32-5.22,5.22
		c0,2.88,2.34,5.22,5.22,5.22h5.34h10.43h32.44C1157.77,989.43,1157.81,991.44,1157.81,993.45z M1023.8,859.25L1023.8,859.25
		c56.17,9.88,100.52,54.23,110.41,110.4c0.5,2.84,3.21,4.73,6.04,4.23c2.84-0.5,4.73-3.21,4.23-6.04
		c-10.68-60.52-58.36-108.21-118.88-118.87c-2.84-0.5-5.54,1.4-6.04,4.23C1019.06,856.04,1020.96,858.75,1023.8,859.25z
		 M974.77,1034.2L974.77,1034.2l-24.71-87.64c-0.63-2.24-2.69-3.8-5.02-3.8s-4.39,1.56-5.02,3.8l-24.71,87.64
		c-0.78,2.77,0.83,5.65,3.6,6.44c2.77,0.78,5.65-0.83,6.44-3.6l7.37-26.14h24.64l7.37,26.13c0.78,2.77,3.66,4.39,6.43,3.61
		C973.94,1039.85,975.55,1036.97,974.77,1034.2z M1028.18,932.13c2.88,0,5.22-2.34,5.22-5.22c0-2.88-2.34-5.22-5.22-5.22H992.8
		c0,0-0.01,0-0.01,0c0,0-0.01,0-0.01,0h-35.37c-2.88,0-5.22,2.34-5.22,5.22c0,2.88,2.34,5.22,5.22,5.22h30.17v135.31
		c0,2.88,2.34,5.22,5.22,5.22s5.22-2.34,5.22-5.22V932.13H1028.18z M1085.17,1035.61L1085.17,1035.61v-85.36
		c0-2.22-1.42-4.21-3.52-4.93c-2.1-0.72-4.45-0.02-5.81,1.73l-26.78,34.44l-26.78-34.44c-1.36-1.75-3.71-2.45-5.81-1.73
		c-2.1,0.72-3.52,2.71-3.52,4.93v85.36c0,2.88,2.34,5.22,5.22,5.22c2.88,0,5.22-2.34,5.22-5.22v-70.16l21.56,27.73
		c0.98,1.26,2.52,2.01,4.12,2.01c1.6,0,3.13-0.75,4.12-2.01l21.56-27.73v70.16c0,2.88,2.34,5.22,5.22,5.22
		C1082.83,1040.83,1085.17,1038.49,1085.17,1035.61z"/>
	
		<linearGradient id="SVGID_00000049921257587067119720000002072080764472893624_" gradientUnits="userSpaceOnUse" x1="3286.1658" y1="-2434.427" x2="2592.5793" y2="-3635.7537" gradientTransform="matrix(0 -1 1 0 4029.271 3928.908)">
		<stop  offset="0" style="stop-color:#AA51BD"/>
		<stop  offset="1" style="stop-color:#2389D3"/>
	</linearGradient>
	<path style="fill:url(#SVGID_00000049921257587067119720000002072080764472893624_);" d="M949.54,326.96
		c-29.56,20.14-50.87,50.1-63.54,71.69c-33.78,57.69-60.94,136.32-80.81,233.72c-60.14-23.86-115.24-41.28-164.07-51.76
		c-76.15-16.39-137.47-15.91-182.23,1.33l-0.12,0.03l-0.09,0.06c-41.19,16.5-64.84,51.4-64.84,95.72c0,1.48,0.03,2.95,0.09,4.43
		v0.21c2.75,55.36,31.03,101.86,57.34,141.1l0.12,0.18l0.12,0.15c38.32,54.03,85.92,106.17,145.03,158.82
		c-6.26,5.02-12.43,10.04-18.42,15c-17.18,14.38-32.83,28.11-47.3,41.48c1.45,0.74,2.89,1.54,4.4,2.39
		c14.08,8.12,25.95,19.78,34.25,33.66c0.68,1.12,1.33,2.24,1.92,3.37c13.14-12.34,27.28-24.98,42.69-38.18
		c8.21-7,16.68-14.05,25.27-21.02c24.45,20.11,51.43,41.13,82.38,64.16c15.44,11.34,31.12,22.47,46.8,33.3
		c1.33,53.59,4.31,105.55,8.71,150.99c1.15,11.54,2.33,22.29,3.57,32.71c-72.69,22.56-138.92,35.84-202.01,40.54
		c-76.56,4.07-123.42-8.8-139.27-38.21c-3.1-6.44-4.66-13.82-4.66-22c0-18.01,7.32-39.98,21.82-65.46c-1.83-0.59-3.63-1.24-5.4-1.98
		c-4.1-1.65-8.12-3.63-11.93-5.85c-11.54-6.64-21.35-15.44-29.2-26.16c-21.73,36.67-32.01,68.79-32.01,99.47
		c0,5.82,0.38,11.63,1.18,17.3l0.03,0.18l0.03,0.18c5.58,34.28,26.69,61.18,61.03,77.74c32.24,15.56,68.85,19.01,93.89,19.19
		c69.15,0.44,154.01-16.42,252.44-50.08c9.51,64.69,22.14,121.67,37.7,169.54c23.83,73.31,54.71,125.66,91.8,155.6l0.09,0.06
		l0.06,0.06c36.23,28.49,79.63,30.68,119.11,5.99l0.12-0.06l0.09-0.06c46.53-30.03,72.66-77.77,93.51-120.2l0.09-0.18l0.09-0.18
		c28.02-61.06,49.57-129.5,65.75-208.51c4.69,1.8,9.36,3.57,13.88,5.23c21.08,7.71,40.8,14.38,59.58,20.2
		c-0.09-1.62-0.15-3.28-0.15-5.02c0-16.27,4.16-32.33,12.02-46.47c0.62-1.12,1.27-2.24,1.95-3.34
		c-17.27-5.23-35.25-11.13-54.39-17.89c-7.68-2.72-15.26-5.52-22.68-8.3c4.99-30.15,9.51-62.86,13.82-99.74
		c2.16-19.72,4.04-39.83,5.67-60.05c42.31-26.1,81.49-51.99,116.54-76.97c11.52-8.3,22.76-16.56,33.57-24.71
		c53.56,50.05,96.52,99.18,131.12,149.99c29.79,45.82,44.29,81.73,44.29,109.84c0,11.66-2.54,21.44-7.74,29.88
		c-12.73,18.69-41.63,28.49-84.33,28.85c0.41,1.95,0.77,3.93,1.03,5.93c0.56,4.31,0.86,8.68,0.86,12.99
		c0,13.38-2.69,26.34-8.06,38.47c38,0.5,82.38-5.14,116.54-31.77l0.15-0.09l0.15-0.12c24.33-19.9,37.2-48.04,37.2-81.37
		c0-41.07-19.25-81.08-30.71-101.27c-33.45-58.79-88.87-122.41-164.66-189.17c127.2-101.83,197.79-192.36,209.84-269.18l0.03-0.09
		v-0.09c0.83-5.64,1.21-11.25,1.21-16.71c0-38.12-20.25-70.71-55.57-89.46l-0.09-0.06l-0.09-0.03
		c-49.31-25.3-103.72-24.06-150.88-20.9l-0.18,0.03h-0.21c-64.25,5.99-131.03,20.46-203.82,44.11c-0.77-4.84-1.56-9.71-2.39-14.64
		c-3.9-22.09-7.94-42.52-12.31-61.71c-1.36,0.92-2.78,1.77-4.22,2.63c-14.11,8.15-30.15,12.61-46.36,12.84
		c-1.3,0.03-2.6,0.03-3.87-0.03c4.13,17.51,8,36.08,11.75,56.1c1.45,7.94,2.83,15.77,4.1,23.35c-31.44,11.6-64.54,24.98-102.9,41.51
		c-14.64,6.44-29.38,13.17-43.93,19.99c-46.47-25.3-92.47-48.45-133.81-67.26c-10.04-4.55-20.02-8.92-29.85-13.14
		c16.48-70.09,37.29-130.86,63.63-185.39c34.72-68.32,69.3-102.48,102.72-101.51c22.56,1.71,45.47,21.76,67.14,58.55
		c1.48-1.3,2.98-2.54,4.55-3.75c3.51-2.72,7.2-5.2,10.95-7.35c11.6-6.7,24.15-10.78,37.29-12.22c-18.6-33.13-45.65-68.74-85.8-85.03
		l-0.15-0.06l-0.18-0.06C1014.91,300.65,981.07,305.49,949.54,326.96z M684.28,984.17c27.46-20.73,56.48-41.16,86.69-61.09
		c-2.07,41.78-3.16,84.38-3.22,127.14C738.43,1028.4,710.47,1006.28,684.28,984.17z M808.08,1143.46
		c22.29,14.67,45.17,29.17,68.32,43.2c26.69,16.53,53.41,32.33,79.78,47.21c-10.69,4.78-21.38,9.48-32.04,14.05
		c-36.2,14.97-69.21,27.61-100.51,38.47C816.32,1240.06,811.1,1192.2,808.08,1143.46z M1141.63,1325.81
		c-21.38,98.56-50.49,180.05-86.66,242.38c-32.54,52.32-62.68,73.67-89.61,63.42c-27.37-12.16-68.29-55.51-108.6-192.57
		c-9.95-35.52-18.57-72.37-25.66-109.69c53.03-20.02,109.1-44.38,166.94-72.49C1046.18,1282.58,1094.39,1305.73,1141.63,1325.81z
		 M1152.44,1270.89c-31.53-13.17-63.54-27.75-95.6-43.55c37.05-19.25,74.14-39.68,110.78-61
		C1163.42,1202.45,1158.35,1237.47,1152.44,1270.89z M1015.29,1206.17c-36.73-19.28-74.35-40.54-111.99-63.39
		c-33.48-20.99-66.43-42.96-98.03-65.34c-0.3-12.78-0.44-25.72-0.44-38.59c0-45.91,1.86-93.3,5.49-141.07
		c32.6-20.37,66.99-40.51,102.39-59.94c37.7-19.99,76.03-38.83,114.09-56.1c50.58,27.67,101.57,58.99,151.73,93.15
		c1.09,27.13,1.68,54.98,1.68,83.03c0,15.5-0.18,31.42-0.5,47.3c-1.42,38.5-3.87,77.06-7.32,114.68
		C1122.92,1150.42,1070.15,1179.42,1015.29,1206.17z M1228.11,1083.99c1.48-25.6,2.48-51.55,3.04-77.42
		c0.74-23.86,1.12-47.83,1.12-71.16c0-7.59-0.06-15.21-0.15-22.79c6.94,5.08,13.82,10.16,20.61,15.21
		c32.98,25.33,62.06,49.07,88.49,72.1C1305.62,1029.13,1267.74,1057.3,1228.11,1083.99z M1219.05,707.45
		c92.06-28.73,173.99-43.26,243.62-43.11c61.56,2.04,95.1,17.48,99.74,45.91c0.21,2.16,0.33,4.4,0.33,6.67
		c0,29.73-19.58,85.74-112.85,183.65c-23.77,24.33-49.07,48.22-75.26,71.1c-43.02-35.52-91.2-71.51-143.55-107.24
		C1229.24,810.53,1225.19,757.79,1219.05,707.45z M1166.08,725.14c4.28,33.39,7.62,67.82,9.95,102.87
		c-34.66-22.29-70.33-44.08-106.62-65.02C1102.28,748.99,1134.64,736.33,1166.08,725.14z M967.79,751
		c-26.57,13.2-53.23,27.1-79.6,41.6c-24.65,13.23-48.78,26.75-71.92,40.27c0.83-7.56,1.68-15.15,2.6-22.79
		c5.64-42.72,11.87-80.96,18.9-116.27C881.01,710.43,924.56,729.6,967.79,751z M796.54,678.69
		c-9.45,55.33-16.65,115.39-21.49,178.93c-46.83,28.82-91.41,58.96-132.75,89.73c-73.46-67.02-128.67-132.27-164.22-194.07
		c-16.62-31.15-24.71-55.83-24.71-75.5c0-14.76,4.78-25.83,14.62-33.87c24.21-17.63,82.23-31.42,221.06,2.3
		C724.61,655.31,760.7,666.23,796.54,678.69z M1138.89,430.21c3.66-0.3,7.29-0.27,10.89,0.09c20.25,1.83,38.86,13.43,49.25,31.42
		c5.55,9.63,8.5,20.58,8.5,31.65c0,17.6-7.17,34.13-19.61,45.88c-2.63,2.51-5.46,4.78-8.53,6.82c-1.09,0.77-2.27,1.51-3.57,2.24
		c-9.3,5.37-19.9,8.33-30.62,8.5c-3.96,0.06-7.85-0.24-11.69-0.92c-18.42-3.13-34.75-14.29-44.29-30.8
		c-5.55-9.63-8.5-20.58-8.5-31.65c0-15.44,5.76-30.41,15.8-41.87c2.6-3.01,5.52-5.79,8.71-8.24c2.33-1.8,4.78-3.45,7.2-4.84
		C1120.64,433.75,1129.56,430.97,1138.89,430.21z M463.43,1183.29c-2.69-1.09-5.34-2.39-7.85-3.84
		c-8.18-4.72-15.03-11.04-20.4-18.78c-2.1-3.01-3.9-6.2-5.43-9.48c-3.87-8.33-5.88-17.39-5.88-26.69c0-11.07,2.95-22.03,8.53-31.65
		c14.76-25.6,45.11-37.2,72.66-29.17c3.51,1.03,6.97,2.36,10.36,4.05c1.18,0.59,2.33,1.21,3.54,1.92
		c9.33,5.37,17.15,13.08,22.65,22.23c2.04,3.4,3.72,6.94,5.08,10.6c2.63,7.06,3.99,14.53,3.99,22.11c0,11.07-2.92,22.03-8.5,31.65
		c-13.73,23.8-41.22,35.67-67.29,30.47C471.02,1185.94,467.18,1184.82,463.43,1183.29z M1416.16,1404.29
		c-11.72,16.65-31.09,26.99-51.85,26.99c-29.58,0-54.8-20.52-61.56-48.39c-0.89-3.51-1.45-7.15-1.68-10.87
		c-0.09-1.33-0.15-2.69-0.15-4.16c0-10.75,2.75-21.38,7.94-30.74c1.92-3.45,4.16-6.7,6.64-9.68c11.9-14.38,29.73-22.97,48.81-22.97
		c27.46,0,51.46,17.83,60.06,43.05c1.3,3.75,2.21,7.68,2.78,11.72c0.38,2.86,0.56,5.76,0.56,8.62c0,9.45-2.04,18.57-6.05,27.05
		C1420.09,1398.2,1418.26,1401.36,1416.16,1404.29z"/>
</g>
</svg>
