<?xml version="1.0" encoding="utf-8"?>
<!-- Generator: Adobe Illustrator 28.2.0, SVG Export Plug-In . SVG Version: 6.00 Build 0)  -->
<svg version="1.1" id="Layer_1" xmlns="http://www.w3.org/2000/svg" xmlns:xlink="http://www.w3.org/1999/xlink" x="0px" y="0px"
	 viewBox="0 0 2000 2000" style="enable-background:new 0 0 2000 2000;" xml:space="preserve">
<style type="text/css">
	.st0{fill:url(#SVGID_1_);}
	.st1{fill:url(#SVGID_00000111892363038413516030000012868693081446418608_);}
	.st2{fill:url(#SVGID_00000136411071401942458730000000549393250373844369_);}
	.st3{fill:url(#SVGID_00000013893860184557784710000014293758814656524163_);}
	.st4{fill:url(#SVGID_00000117647716134042240700000004622242785288485302_);}
	.st5{fill:url(#SVGID_00000075873885831320306680000004278960386766457517_);}
	.st6{fill:url(#SVGID_00000165216306935363007010000007855283763184044937_);}
	.st7{fill:url(#SVGID_00000007427225498080754600000002648816696204898977_);}
	.st8{fill:url(#SVGID_00000078007377487409076520000009173884025494256768_);}
	.st9{fill:url(#SVGID_00000033359345450146505800000016266857632028730798_);}
	.st10{fill:url(#SVGID_00000110458318408529958920000017616497249341206677_);}
	.st11{fill:url(#SVGID_00000064325399474917847510000018281318861885549992_);}
</style>
<g>
	<rect x="0" width="2000" height="2000"/>
</g>
<g>
	<linearGradient id="SVGID_1_" gradientUnits="userSpaceOnUse" x1="368.8639" y1="1027.6255" x2="335.3581" y2="969.5919">
		<stop  offset="0" style="stop-color:#AA51BD"/>
		<stop  offset="1" style="stop-color:#2389D3"/>
	</linearGradient>
	<path class="st0" d="M378.5,1002.1h6.93c-1.74,16.86-15.99,30.01-33.32,30.01c-17.33,0-31.58-13.15-33.32-30.01h2.37
		c0.07,0.65,0.16,1.3,0.28,1.95c2.27,12.84,12.38,22.97,25.23,25.24c1.77,0.31,3.58,0.47,5.44,0.47c1.85,0,3.67-0.16,5.43-0.47
		c12.85-2.27,22.97-12.39,25.23-25.24c0.1-0.6-0.3-1.18-0.9-1.28c-0.6-0.1-1.18,0.3-1.28,0.9c-2.09,11.92-11.52,21.34-23.44,23.44
		c-1.28,0.23-2.6,0.37-3.94,0.42c0,0,0,0,0,0v-2.31c0,0,0,0,0,0c6.91-0.28,13.14-3.2,17.72-7.77
		C374.97,1013.39,377.72,1008.05,378.5,1002.1z M338.46,1000.1h3.98l-1.99-7.06L338.46,1000.1z M385.61,998.61
		c0,0.43-0.01,0.85-0.03,1.27h-6.89h-2.21h-1.13c-0.61,0-1.11,0.5-1.11,1.11c0,0.61,0.5,1.11,1.11,1.11h0.91
		c-0.76,5.34-3.26,10.13-6.9,13.77c-4.36,4.36-10.35,7.07-16.98,7.14c0,0-0.01,0-0.01,0c-0.09-0.02-0.18-0.04-0.27-0.04
		c-0.09,0-0.18,0.02-0.27,0.04c0,0-0.01,0-0.01,0c-5.69-0.06-10.9-2.07-15.01-5.38c-0.48-0.39-1.17-0.31-1.56,0.16
		c-0.38,0.48-0.31,1.17,0.17,1.56v0c4.3,3.47,9.7,5.62,15.58,5.86v2.31c-1.34-0.05-2.66-0.19-3.94-0.42
		c-11.92-2.1-21.34-11.51-23.43-23.44c-0.09-0.52-0.17-1.03-0.23-1.56h5.48c0.61,0,1.11-0.5,1.11-1.11c0-0.61-0.49-1.11-1.11-1.11
		h-5.66H321h-2.36c-0.02-0.42-0.03-0.85-0.03-1.27c0-0.43,0.01-0.85,0.03-1.27H321h2.22h5.66c0.61,0,1.11-0.5,1.11-1.11
		c0-0.61-0.49-1.11-1.11-1.11h-5.48c0.06-0.53,0.14-1.05,0.23-1.56c0.3-1.73,0.76-3.41,1.36-5.02h4.19c0.61,0,1.11-0.5,1.11-1.11
		c0-0.61-0.5-1.11-1.11-1.11h-3.26c3.93-8.37,11.76-14.55,21.14-16.2c0.6-0.11,1-0.68,0.9-1.28c-0.11-0.6-0.68-1-1.28-0.9
		c-10.71,1.89-19.52,9.23-23.47,19.06c-0.79,1.96-1.39,4.03-1.77,6.17c-0.11,0.64-0.21,1.29-0.28,1.95h-2.37
		c1.74-16.86,15.99-30.01,33.32-30.01c17.32,0,31.57,13.15,33.32,30.01h-6.93c-0.78-5.95-3.53-11.3-7.57-15.33
		c-4.57-4.57-10.81-7.49-17.72-7.77c0,0,0,0,0,0v-3.43c0-0.61-0.5-1.11-1.11-1.11c-0.61,0-1.11,0.5-1.11,1.11v3.43
		c-5.88,0.24-11.28,2.39-15.58,5.86c-0.47,0.39-0.55,1.08-0.17,1.56c0.39,0.47,1.08,0.55,1.56,0.17c4.12-3.32,9.33-5.32,15.01-5.39
		c0,0,0.01,0,0.01,0c0.09,0.02,0.18,0.04,0.27,0.04c0.09,0,0.18-0.02,0.27-0.04c0,0,0,0,0.01,0c6.63,0.07,12.62,2.79,16.98,7.15
		c3.64,3.64,6.13,8.42,6.9,13.77h-0.91c-0.61,0-1.11,0.49-1.11,1.11c0,0.61,0.5,1.11,1.11,1.11h1.13h2.21h6.89
		C385.6,997.76,385.61,998.18,385.61,998.61z M357.16,970.12L357.16,970.12c11.92,2.1,21.34,11.51,23.44,23.43
		c0.11,0.6,0.68,1,1.28,0.9c0.6-0.11,1-0.68,0.9-1.28c-2.27-12.85-12.39-22.97-25.24-25.23c-0.6-0.11-1.18,0.3-1.28,0.9
		C356.16,969.44,356.56,970.02,357.16,970.12z M346.76,1007.26L346.76,1007.26l-5.24-18.6c-0.13-0.48-0.57-0.81-1.07-0.81
		c-0.49,0-0.93,0.33-1.07,0.81l-5.24,18.6c-0.17,0.59,0.18,1.2,0.77,1.37s1.2-0.18,1.37-0.77l1.56-5.55h5.23l1.56,5.55
		c0.17,0.59,0.78,0.93,1.37,0.77C346.58,1008.46,346.92,1007.85,346.76,1007.26z M358.09,985.59c0.61,0,1.11-0.5,1.11-1.11
		c0-0.61-0.5-1.11-1.11-1.11h-7.51c0,0,0,0,0,0c0,0,0,0,0,0h-7.51c-0.61,0-1.11,0.5-1.11,1.11c0,0.61,0.5,1.11,1.11,1.11h6.4v28.72
		c0,0.61,0.5,1.11,1.11,1.11c0.61,0,1.11-0.5,1.11-1.11v-28.72H358.09z M370.19,1007.56L370.19,1007.56v-18.12
		c0-0.47-0.3-0.89-0.75-1.05c-0.45-0.15-0.94,0-1.23,0.37l-5.68,7.31l-5.68-7.31c-0.29-0.37-0.79-0.52-1.23-0.37
		c-0.45,0.15-0.75,0.58-0.75,1.05v18.12c0,0.61,0.5,1.11,1.11,1.11c0.61,0,1.11-0.5,1.11-1.11v-14.89l4.58,5.89
		c0.21,0.27,0.53,0.43,0.87,0.43c0.34,0,0.67-0.16,0.87-0.43l4.58-5.89v14.89c0,0.61,0.5,1.11,1.11,1.11
		C369.69,1008.67,370.19,1008.17,370.19,1007.56z"/>
	
		<linearGradient id="SVGID_00000053511814097000982650000002706960827301653177_" gradientUnits="userSpaceOnUse" x1="7422.5137" y1="-7968.6621" x2="7275.2852" y2="-8223.6689" gradientTransform="matrix(0 -1 1 0 8447.041 8346.6777)">
		<stop  offset="0" style="stop-color:#AA51BD"/>
		<stop  offset="1" style="stop-color:#2389D3"/>
	</linearGradient>
	<path style="fill:url(#SVGID_00000053511814097000982650000002706960827301653177_);" d="M341.4,857.13
		c-6.27,4.27-10.8,10.64-13.49,15.22c-7.17,12.25-12.94,28.94-17.15,49.61c-12.77-5.06-24.46-8.76-34.83-10.99
		c-16.16-3.48-29.18-3.38-38.68,0.28l-0.03,0.01l-0.02,0.01c-8.74,3.5-13.76,10.91-13.76,20.32c0,0.31,0.01,0.63,0.02,0.94v0.04
		c0.58,11.75,6.59,21.62,12.17,29.95l0.03,0.04l0.03,0.03c8.14,11.47,18.24,22.54,30.79,33.71c-1.33,1.07-2.64,2.13-3.91,3.18
		c-3.65,3.05-6.97,5.97-10.04,8.81c0.31,0.16,0.61,0.33,0.93,0.51c2.99,1.72,5.51,4.2,7.27,7.14c0.14,0.24,0.28,0.48,0.41,0.71
		c2.79-2.62,5.79-5.3,9.06-8.1c1.74-1.49,3.54-2.98,5.36-4.46c5.19,4.27,10.92,8.73,17.49,13.62c3.28,2.41,6.61,4.77,9.93,7.07
		c0.28,11.38,0.92,22.41,1.85,32.05c0.24,2.45,0.5,4.73,0.76,6.94c-15.43,4.79-29.49,7.61-42.88,8.61
		c-16.25,0.86-26.2-1.87-29.56-8.11c-0.66-1.37-0.99-2.93-0.99-4.67c0-3.82,1.55-8.49,4.63-13.89c-0.39-0.13-0.77-0.26-1.15-0.42
		c-0.87-0.35-1.72-0.77-2.53-1.24c-2.45-1.41-4.53-3.28-6.2-5.55c-4.61,7.78-6.79,14.6-6.79,21.11c0,1.23,0.08,2.47,0.25,3.67
		l0.01,0.04l0.01,0.04c1.18,7.28,5.67,12.99,12.95,16.5c6.84,3.3,14.62,4.04,19.93,4.07c14.68,0.09,32.69-3.48,53.59-10.63
		c2.02,13.73,4.7,25.83,8,35.99c5.06,15.56,11.61,26.67,19.49,33.03l0.02,0.01l0.01,0.01c7.69,6.05,16.9,6.51,25.28,1.27l0.03-0.01
		l0.02-0.01c9.88-6.37,15.42-16.51,19.85-25.51l0.02-0.04l0.02-0.04c5.95-12.96,10.52-27.49,13.96-44.26c1,0.38,1.99,0.76,2.95,1.11
		c4.47,1.64,8.66,3.05,12.65,4.29c-0.02-0.34-0.03-0.7-0.03-1.07c0-3.45,0.88-6.86,2.55-9.86c0.13-0.24,0.27-0.48,0.41-0.71
		c-3.67-1.11-7.48-2.36-11.54-3.8c-1.63-0.58-3.24-1.17-4.81-1.76c1.06-6.4,2.02-13.34,2.93-21.17c0.46-4.19,0.86-8.45,1.2-12.75
		c8.98-5.54,17.3-11.04,24.74-16.34c2.44-1.76,4.83-3.52,7.13-5.25c11.37,10.62,20.49,21.05,27.83,31.84
		c6.32,9.73,9.4,17.35,9.4,23.31c0,2.48-0.54,4.55-1.64,6.34c-2.7,3.97-8.84,6.05-17.9,6.12c0.09,0.41,0.16,0.83,0.22,1.26
		c0.12,0.92,0.18,1.84,0.18,2.76c0,2.84-0.57,5.59-1.71,8.17c8.07,0.11,17.49-1.09,24.74-6.74l0.03-0.02l0.03-0.03
		c5.16-4.22,7.9-10.2,7.9-17.27c0-8.72-4.09-17.21-6.52-21.5c-7.1-12.48-18.86-25.98-34.95-40.16c27-21.62,41.99-40.83,44.54-57.14
		l0.01-0.02v-0.02c0.18-1.2,0.26-2.39,0.26-3.55c0-8.09-4.3-15.01-11.8-18.99l-0.02-0.01l-0.02-0.01
		c-10.47-5.37-22.02-5.11-32.03-4.44l-0.04,0.01h-0.04c-13.64,1.27-27.81,4.34-43.26,9.36c-0.16-1.03-0.33-2.06-0.51-3.11
		c-0.83-4.69-1.69-9.03-2.61-13.1c-0.29,0.19-0.59,0.38-0.9,0.56c-3,1.73-6.4,2.68-9.84,2.73c-0.28,0.01-0.55,0.01-0.82-0.01
		c0.88,3.72,1.7,7.66,2.49,11.91c0.31,1.69,0.6,3.35,0.87,4.96c-6.67,2.46-13.7,5.3-21.84,8.81c-3.11,1.37-6.24,2.8-9.33,4.24
		c-9.86-5.37-19.63-10.28-28.4-14.28c-2.13-0.97-4.25-1.89-6.34-2.79c3.5-14.88,7.92-27.78,13.51-39.35
		c7.37-14.5,14.71-21.75,21.8-21.55c4.79,0.36,9.65,4.62,14.25,12.43c0.31-0.28,0.63-0.54,0.97-0.8c0.75-0.58,1.53-1.1,2.33-1.56
		c2.46-1.42,5.13-2.29,7.92-2.59c-3.95-7.03-9.69-14.59-18.21-18.05l-0.03-0.01l-0.04-0.01
		C355.28,851.55,348.09,852.58,341.4,857.13z M285.09,996.64c5.83-4.4,11.99-8.74,18.4-12.97c-0.44,8.87-0.67,17.91-0.68,26.99
		C296.59,1006.03,290.65,1001.33,285.09,996.64z M311.37,1030.45c4.73,3.11,9.59,6.19,14.5,9.17c5.67,3.51,11.34,6.86,16.93,10.02
		c-2.27,1.02-4.54,2.01-6.8,2.98c-7.68,3.18-14.69,5.86-21.33,8.17C313.12,1050.96,312.01,1040.8,311.37,1030.45z M382.18,1069.16
		c-4.54,20.92-10.72,38.22-18.39,51.45c-6.91,11.11-13.31,15.64-19.02,13.46c-5.81-2.58-14.5-11.78-23.05-40.88
		c-2.11-7.54-3.94-15.36-5.45-23.28c11.26-4.25,23.16-9.42,35.44-15.39C361.91,1059.98,372.15,1064.9,382.18,1069.16z
		 M384.47,1057.5c-6.69-2.8-13.49-5.89-20.29-9.24c7.87-4.09,15.74-8.42,23.52-12.95C386.8,1042.97,385.72,1050.41,384.47,1057.5z
		 M355.36,1043.76c-7.8-4.09-15.78-8.61-23.77-13.46c-7.11-4.46-14.1-9.12-20.81-13.87c-0.06-2.71-0.09-5.46-0.09-8.19
		c0-9.75,0.39-19.81,1.17-29.95c6.92-4.32,14.22-8.6,21.74-12.72c8-4.24,16.14-8.24,24.22-11.91c10.74,5.87,21.56,12.52,32.21,19.77
		c0.23,5.76,0.36,11.67,0.36,17.62c0,3.29-0.04,6.67-0.11,10.04c-0.3,8.17-0.82,16.36-1.55,24.34
		C378.2,1031.93,367,1038.09,355.36,1043.76z M400.53,1017.83c0.31-5.43,0.53-10.94,0.65-16.43c0.16-5.06,0.24-10.15,0.24-15.1
		c0-1.61-0.01-3.23-0.03-4.84c1.47,1.08,2.93,2.16,4.37,3.23c7,5.38,13.17,10.42,18.78,15.31
		C416.99,1006.18,408.94,1012.16,400.53,1017.83z M398.61,937.9c19.54-6.1,36.93-9.18,51.71-9.15c13.07,0.43,20.19,3.71,21.17,9.75
		c0.04,0.46,0.07,0.93,0.07,1.42c0,6.31-4.16,18.2-23.95,38.98c-5.05,5.16-10.42,10.23-15.98,15.09
		c-9.13-7.54-19.36-15.18-30.47-22.76C400.77,959.78,399.91,948.59,398.61,937.9z M387.37,941.65c0.91,7.09,1.62,14.4,2.11,21.84
		c-7.36-4.73-14.93-9.36-22.63-13.8C373.82,946.72,380.69,944.03,387.37,941.65z M345.27,947.15c-5.64,2.8-11.3,5.75-16.9,8.83
		c-5.23,2.81-10.35,5.68-15.27,8.55c0.18-1.6,0.36-3.22,0.55-4.84c1.2-9.07,2.52-17.19,4.01-24.68
		C326.85,938.53,336.1,942.6,345.27,947.15z M308.92,931.8c-2.01,11.75-3.53,24.49-4.56,37.98c-9.94,6.12-19.4,12.52-28.18,19.05
		c-15.59-14.23-27.31-28.08-34.86-41.2c-3.53-6.61-5.25-11.85-5.25-16.03c0-3.13,1.02-5.48,3.1-7.19
		c5.14-3.74,17.45-6.67,46.92,0.49C293.65,926.83,301.31,929.15,308.92,931.8z M381.59,879.05c0.78-0.06,1.55-0.06,2.31,0.02
		c4.3,0.39,8.25,2.85,10.45,6.67c1.18,2.04,1.81,4.37,1.81,6.72c0,3.74-1.52,7.25-4.16,9.74c-0.56,0.53-1.16,1.02-1.81,1.45
		c-0.23,0.16-0.48,0.32-0.76,0.48c-1.97,1.14-4.22,1.77-6.5,1.8c-0.84,0.01-1.67-0.05-2.48-0.19c-3.91-0.66-7.38-3.03-9.4-6.54
		c-1.18-2.04-1.8-4.37-1.8-6.72c0-3.28,1.22-6.46,3.35-8.89c0.55-0.64,1.17-1.23,1.85-1.75c0.5-0.38,1.02-0.73,1.53-1.03
		C377.72,879.8,379.61,879.21,381.59,879.05z M238.21,1038.91c-0.57-0.23-1.13-0.51-1.67-0.81c-1.74-1-3.19-2.34-4.33-3.99
		c-0.45-0.64-0.83-1.32-1.15-2.01c-0.82-1.77-1.25-3.69-1.25-5.67c0-2.35,0.63-4.68,1.81-6.72c3.13-5.43,9.58-7.9,15.42-6.19
		c0.75,0.22,1.48,0.5,2.2,0.86c0.25,0.13,0.5,0.26,0.75,0.41c1.98,1.14,3.64,2.78,4.81,4.72c0.43,0.72,0.79,1.47,1.08,2.25
		c0.56,1.5,0.85,3.08,0.85,4.69c0,2.35-0.62,4.68-1.81,6.72c-2.91,5.05-8.75,7.57-14.28,6.47
		C239.82,1039.47,239.01,1039.23,238.21,1038.91z M440.45,1085.82c-2.49,3.53-6.6,5.73-11.01,5.73c-6.28,0-11.63-4.36-13.07-10.27
		c-0.19-0.75-0.31-1.52-0.36-2.31c-0.02-0.28-0.03-0.57-0.03-0.88c0-2.28,0.58-4.54,1.69-6.52c0.41-0.73,0.88-1.42,1.41-2.06
		c2.53-3.05,6.31-4.88,10.36-4.88c5.83,0,10.92,3.79,12.75,9.14c0.28,0.8,0.47,1.63,0.59,2.49c0.08,0.61,0.12,1.22,0.12,1.83
		c0,2.01-0.43,3.94-1.28,5.74C441.28,1084.53,440.9,1085.2,440.45,1085.82z"/>
	
		<linearGradient id="SVGID_00000168107518624391532620000001019617841641534877_" gradientUnits="userSpaceOnUse" x1="568.0793" y1="921.3381" x2="1747.3932" y2="1121.6599">
		<stop  offset="0" style="stop-color:#2389D3"/>
		<stop  offset="1" style="stop-color:#AA51BD"/>
	</linearGradient>
	<path style="fill:url(#SVGID_00000168107518624391532620000001019617841641534877_);" d="M606.05,929.03
		c-0.92-1.85-2.04-3.39-3.35-4.62c-1.31-1.23-2.74-2.16-4.28-2.77c-1.54-0.61-3.24-0.92-5.09-0.92c-2.62,0-5.13,0.73-7.51,2.2
		c-2.39,1.47-4.2,3.43-5.43,5.89l-63.57,132.46c-1.7,3.39-2.66,6.28-2.89,8.67c-0.23,2.39,0.38,4.43,1.85,6.13
		c1.46,1.7,3.73,3.32,6.82,4.85c4.93,2.16,8.78,2.73,11.56,1.73c2.77-1,5.32-3.89,7.63-8.67l15.91-33.75h70.98l15.98,33.75
		c2.31,4.93,4.81,7.93,7.51,9.02c2.69,1.08,6.51,0.46,11.44-1.85c3.24-1.69,5.55-3.35,6.93-4.97c1.39-1.62,2.04-3.54,1.96-5.78
		c-0.08-2.23-0.89-4.82-2.43-7.74L606.05,929.03z M568.92,1016.41l24.19-51.32l24.3,51.32H568.92z M758.62,974.46
		c1.23,1.93,1.85,5.05,1.85,9.36c0,4.01-0.62,7.01-1.85,9.02c-1.24,2.01-2.85,3.28-4.85,3.81c-2,0.54-4.32,0.81-6.93,0.81
		l-18.96-0.28v43.74c0,3.24,0.27,5.86,0.81,7.86c0.54,2.01,1.39,3.51,2.54,4.51c1.16,1,2.69,1.7,4.62,2.08
		c1.92,0.39,4.28,0.58,7.05,0.58c2.93,0,5.43,0.23,7.51,0.69c2.08,0.46,3.66,1.58,4.74,3.35c1.08,1.77,1.62,4.66,1.62,8.67
		c0,4.32-0.66,7.44-1.96,9.36c-1.31,1.93-3.01,3.12-5.09,3.58c-2.08,0.46-4.36,0.69-6.82,0.69c-7.55,0-14.03-0.77-19.42-2.31
		c-5.4-1.54-9.79-3.93-13.18-7.17c-3.39-3.24-5.89-7.43-7.51-12.6c-1.62-5.16-2.43-11.29-2.43-18.38v-44.71l-10.17,0.09
		c-3.85-0.15-6.51-1.27-7.98-3.35c-1.47-2.08-2.2-5.51-2.2-10.29c0-4.47,0.89-7.74,2.66-9.82c1.77-2.08,4.51-3.12,8.21-3.12
		l9.48,0.09v-26.91c0-2.77,0.27-5.16,0.81-7.17c0.54-2,1.77-3.58,3.7-4.74c1.92-1.16,4.97-1.73,9.13-1.73
		c4.31,0,7.43,0.62,9.36,1.85c1.93,1.23,3.16,2.89,3.7,4.97c0.54,2.08,0.81,4.36,0.81,6.82v26.66l18.72-0.54
		c2.62,0,4.97,0.27,7.05,0.81C755.73,971.3,757.39,972.53,758.62,974.46z M859.87,974.46c-8.78-5.16-18.57-7.74-29.36-7.74
		c-8.01,0-15.53,1.5-22.54,4.51c-7.01,3.01-13.22,7.21-18.61,12.6c-5.4,5.4-9.63,11.64-12.71,18.72
		c-3.08,7.09-4.62,14.72-4.62,22.89c0,8.48,1.65,16.26,4.97,23.35c3.31,7.09,7.78,13.26,13.41,18.49
		c5.62,5.24,11.94,9.29,18.96,12.14c7.01,2.85,14.22,4.28,21.61,4.28c7.24,0,14.29-1.39,21.15-4.16c6.86-2.77,13.06-6.74,18.61-11.9
		c5.55-5.16,9.94-11.33,13.18-18.49c3.24-7.17,4.85-15.14,4.85-23.93c0-11.1-2.62-21.04-7.86-29.82
		C875.67,986.59,868.66,979.62,859.87,974.46z M856.75,1041.61c-3.01,4.78-6.86,8.44-11.56,10.98c-4.7,2.54-9.59,3.81-14.68,3.81
		c-5.24,0-10.21-1.27-14.91-3.81c-4.7-2.54-8.52-6.16-11.44-10.86c-2.93-4.7-4.39-10.29-4.39-16.76c0-5.85,1.35-11.13,4.05-15.83
		c2.69-4.7,6.36-8.4,10.98-11.1c4.62-2.7,9.78-4.05,15.49-4.05c6.01,0,11.33,1.31,15.95,3.93c4.62,2.62,8.28,6.24,10.98,10.86
		c2.69,4.62,4.05,9.94,4.05,15.95C861.26,1031.21,859.76,1036.83,856.75,1041.61z M1067.34,993.87c3.16,8.25,4.74,18.07,4.74,29.47
		v44.85c0,2.62-0.27,4.97-0.81,7.05c-0.54,2.08-1.77,3.74-3.7,4.97c-1.93,1.23-5.05,1.85-9.36,1.85c-4.32,0-7.48-0.66-9.48-1.96
		c-2-1.31-3.24-3.01-3.7-5.09c-0.46-2.08-0.69-4.43-0.69-7.05v-44.85c0-5.7-0.69-10.63-2.08-14.79c-1.39-4.16-3.43-7.4-6.13-9.71
		c-2.7-2.31-6.2-3.47-10.52-3.47c-4.62,0-8.59,1.12-11.9,3.35c-3.32,2.24-5.89,5.43-7.74,9.59c-1.85,4.16-2.77,9.25-2.77,15.26
		v45.08c0,2.62-0.39,5.05-1.16,7.28c-0.77,2.24-2.28,3.93-4.51,5.09c-2.24,1.16-5.43,1.58-9.59,1.27c-3.85-0.16-6.67-0.92-8.44-2.31
		c-1.77-1.39-2.85-3.12-3.24-5.2c-0.39-2.08-0.58-4.28-0.58-6.59v-44.85c0-5.7-0.69-10.67-2.08-14.91
		c-1.39-4.24-3.43-7.47-6.13-9.71c-2.7-2.23-6.28-3.35-10.75-3.35c-4.78,0-8.82,1.23-12.14,3.7c-3.32,2.47-5.82,5.78-7.51,9.94
		c-1.7,4.16-2.54,8.94-2.54,14.33v45.31c0,2.47-0.27,4.78-0.81,6.93c-0.54,2.16-1.77,3.81-3.7,4.97c-1.93,1.16-5.13,1.73-9.59,1.73
		c-4.16,0-7.21-0.62-9.13-1.85c-1.93-1.23-3.12-2.92-3.58-5.09c-0.46-2.16-0.69-4.47-0.69-6.94v-86.46c0-2.46,0.23-4.7,0.69-6.7
		c0.46-2,1.69-3.62,3.7-4.85c2-1.23,5.16-1.85,9.48-1.85c4.47,0,7.74,0.92,9.82,2.77c2.08,1.85,3.12,4.78,3.12,8.78l-2.08,6.47
		c0.77-1.69,2.08-3.54,3.93-5.55c1.85-2,4.12-4.01,6.82-6.01c2.69-2,5.74-3.62,9.13-4.85c3.39-1.23,6.93-1.85,10.63-1.85
		c5.09,0,9.74,0.85,13.99,2.54c4.24,1.7,8.01,4.16,11.33,7.4c3.31,3.24,6.2,7.17,8.67,11.79c2.62-4.01,5.55-7.66,8.78-10.98
		c3.24-3.31,7.01-5.93,11.33-7.86c4.31-1.92,9.17-2.89,14.56-2.89c8.94,0,16.45,2.24,22.54,6.7
		C1059.56,979.27,1064.18,985.63,1067.34,993.87z M1123.17,975.5c0.46,2.16,0.69,4.55,0.69,7.17v85.76c0,2.62-0.23,4.97-0.69,7.05
		c-0.46,2.08-1.66,3.74-3.58,4.97c-1.93,1.23-5.12,1.85-9.59,1.85c-4.16,0-7.25-0.66-9.25-1.96c-2-1.31-3.24-3.01-3.7-5.09
		c-0.46-2.08-0.69-4.43-0.69-7.05V982.2c0-2.46,0.27-4.74,0.81-6.82c0.54-2.08,1.77-3.73,3.7-4.97c1.92-1.23,5.05-1.85,9.36-1.85
		c4.31,0,7.43,0.62,9.36,1.85C1121.51,971.65,1122.7,973.34,1123.17,975.5z M1124.09,923.83c0.61,2.24,0.92,4.82,0.92,7.74
		c0,2.62-0.31,5.09-0.92,7.4c-0.62,2.31-1.93,4.08-3.93,5.32c-2.01,1.24-5.4,1.85-10.17,1.85c-4.47,0-7.74-0.65-9.82-1.96
		c-2.08-1.31-3.39-3.12-3.93-5.43c-0.54-2.31-0.81-4.85-0.81-7.63c0-2.93,0.27-5.47,0.81-7.63c0.54-2.16,1.89-3.89,4.05-5.2
		c2.16-1.31,5.47-1.96,9.94-1.96c4.62,0,7.93,0.69,9.94,2.08C1122.16,919.79,1123.47,921.6,1124.09,923.83z M1246.49,1058.25
		c0.23,2.16-0.23,4.24-1.39,6.24c-1.16,2-3.05,3.85-5.66,5.55c-1.85,1.85-4.59,3.74-8.21,5.66c-3.62,1.93-7.78,3.58-12.48,4.97
		c-4.7,1.39-9.59,2.08-14.68,2.08c-7.4,0-14.6-1.27-21.61-3.81c-7.02-2.54-13.33-6.28-18.96-11.21
		c-5.63-4.93-10.09-10.98-13.41-18.15c-3.32-7.17-4.97-15.29-4.97-24.39c0-9.09,1.66-17.18,4.97-24.27
		c3.31-7.09,7.74-13.1,13.29-18.03c5.55-4.93,11.79-8.7,18.72-11.33c6.93-2.62,14.1-3.93,21.5-3.93c5.39,0,10.52,0.77,15.37,2.31
		c4.85,1.54,9.05,3.39,12.6,5.55c3.54,2.16,6.09,4.32,7.63,6.47c2,1.85,3.7,3.62,5.09,5.32c1.39,1.7,1.85,3.78,1.39,6.24
		c-0.46,1.54-1.16,2.97-2.08,4.28c-0.92,1.31-2.08,2.66-3.47,4.05c-3.7,4.16-7.32,5.7-10.86,4.62c-2.01-1.08-4.01-2.23-6.01-3.47
		c-2.01-1.23-4.05-2.43-6.13-3.58c-2.08-1.16-4.2-2.12-6.36-2.89c-2.16-0.77-4.55-1.16-7.17-1.16c-5.86,0-11.06,1.27-15.6,3.81
		c-4.55,2.54-8.09,6.05-10.63,10.52c-2.54,4.47-3.81,9.63-3.81,15.49c0,5.86,1.27,11.06,3.81,15.6c2.54,4.55,6.05,8.09,10.52,10.63
		c4.47,2.54,9.55,3.81,15.26,3.81c2.77,0,5.43-0.35,7.98-1.04s4.82-1.62,6.82-2.77c2-1.16,3.62-2.35,4.85-3.58
		c1.69-1.08,3.24-2.08,4.62-3.01s2.85-1.39,4.39-1.39c1.85,0,3.66,0.66,5.43,1.96c1.77,1.31,3.74,3.35,5.89,6.13
		C1245.14,1053.86,1246.26,1056.1,1246.49,1058.25z M1430.03,927.88c0.54,2.16,0.81,4.55,0.81,7.17v133.38
		c0,2.31-0.27,4.55-0.81,6.7c-0.54,2.16-1.81,3.85-3.81,5.09c-2.01,1.23-5.17,1.85-9.48,1.85c-4.16,0-7.25-0.66-9.25-1.96
		c-2.01-1.31-3.28-3.04-3.81-5.2c-0.54-2.16-0.81-4.47-0.81-6.93v-99.17l-42.07,60.8c-0.46,0.62-1.16,1.43-2.08,2.43
		c-0.92,1-2.16,1.89-3.7,2.66c-1.54,0.77-3.62,1.16-6.24,1.16c-2.47,0-4.47-0.38-6.01-1.16c-1.54-0.77-2.74-1.62-3.58-2.54
		c-0.85-0.92-1.66-1.85-2.43-2.77l-41.84-60.57v99.63c0,2.31-0.27,4.55-0.81,6.7c-0.54,2.16-1.81,3.85-3.81,5.09
		c-2.01,1.23-5.17,1.85-9.48,1.85c-4.01,0-7.02-0.62-9.02-1.85c-2-1.23-3.28-2.92-3.81-5.09c-0.54-2.16-0.81-4.54-0.81-7.17V934.58
		c0-2.46,0.27-4.74,0.81-6.82c0.54-2.08,1.81-3.77,3.81-5.09c2-1.31,5.16-1.96,9.48-1.96c3.24,0,5.66,0.19,7.28,0.58
		c1.62,0.39,2.89,0.92,3.81,1.62c0.92,0.69,1.85,1.58,2.77,2.66l53.75,75.11l53.98-75.35c1.08-1.23,2.16-2.16,3.24-2.77
		c1.08-0.61,2.46-1.08,4.16-1.39c1.69-0.31,3.93-0.46,6.7-0.46c4.16,0,7.24,0.66,9.25,1.96
		C1428.22,923.99,1429.49,925.72,1430.03,927.88z M1555.55,1028.2c3.93-3.7,5.89-9.63,5.89-17.8c0-4.78-1.12-9.71-3.35-14.79
		c-2.24-5.09-5.47-9.75-9.71-13.99c-4.24-4.24-9.52-7.67-15.83-10.29c-6.32-2.62-13.64-3.93-21.96-3.93
		c-11.71,0-22.08,2.47-31.09,7.4c-9.02,4.93-16.07,11.71-21.15,20.34c-5.09,8.63-7.63,18.49-7.63,29.59
		c0,7.55,1.27,14.83,3.81,21.85c2.54,7.01,6.32,13.33,11.33,18.96c5.01,5.63,11.25,10.06,18.72,13.29
		c7.47,3.24,16.22,4.85,26.24,4.85c9.09,0,16.99-0.89,23.69-2.66c6.7-1.77,11.91-4.01,15.6-6.7c3.7-2.7,5.55-5.58,5.55-8.67
		c0-1.23-0.2-2.5-0.58-3.81c-0.39-1.31-1.04-2.73-1.96-4.28c-1.08-2.31-2.47-3.93-4.16-4.85c-1.7-0.92-3.39-1.31-5.09-1.16
		c-1.24,0.15-2.54,0.54-3.93,1.16c-1.39,0.62-2.89,1.31-4.51,2.08c-1.62,0.77-3.51,1.5-5.66,2.2c-2.16,0.69-4.74,1.27-7.74,1.73
		c-3.01,0.46-6.44,0.69-10.29,0.69c-5.09,0-10.06-1.04-14.91-3.12c-4.85-2.08-8.86-5.05-12.02-8.9c-3.16-3.85-4.82-8.4-4.97-13.64
		h61.03C1546.73,1033.75,1551.62,1031.9,1555.55,1028.2z M1533.24,1016.07c-1.39,0.85-3.39,1.27-6.01,1.27h-47.39
		c0-4.78,1.35-9.09,4.05-12.95c2.69-3.85,6.36-6.9,10.98-9.13c4.62-2.23,9.78-3.35,15.49-3.35c4.93,0,9.25,0.81,12.95,2.43
		c3.7,1.62,6.62,3.85,8.78,6.7c2.16,2.85,3.24,6.05,3.24,9.59C1535.32,1013.41,1534.63,1015.22,1533.24,1016.07z M1652.29,974.46
		c1.23,1.93,1.85,5.05,1.85,9.36c0,4.01-0.62,7.01-1.85,9.02c-1.23,2.01-2.85,3.28-4.85,3.81c-2,0.54-4.32,0.81-6.93,0.81
		l-18.96-0.28v43.74c0,3.24,0.27,5.86,0.81,7.86c0.54,2.01,1.39,3.51,2.54,4.51c1.16,1,2.69,1.7,4.62,2.08
		c1.93,0.39,4.28,0.58,7.05,0.58c2.93,0,5.43,0.23,7.51,0.69c2.08,0.46,3.66,1.58,4.74,3.35c1.08,1.77,1.62,4.66,1.62,8.67
		c0,4.32-0.66,7.44-1.96,9.36c-1.31,1.93-3.01,3.12-5.09,3.58s-4.36,0.69-6.82,0.69c-7.55,0-14.02-0.77-19.42-2.31
		c-5.4-1.54-9.79-3.93-13.18-7.17c-3.39-3.24-5.89-7.43-7.51-12.6c-1.62-5.16-2.43-11.29-2.43-18.38v-44.71l-10.17,0.09
		c-3.85-0.15-6.51-1.27-7.98-3.35c-1.47-2.08-2.2-5.51-2.2-10.29c0-4.47,0.88-7.74,2.66-9.82c1.77-2.08,4.51-3.12,8.21-3.12
		l9.48,0.09v-26.91c0-2.77,0.27-5.16,0.81-7.17c0.54-2,1.77-3.58,3.7-4.74c1.92-1.16,4.97-1.73,9.13-1.73
		c4.31,0,7.43,0.62,9.36,1.85c1.92,1.23,3.16,2.89,3.7,4.97c0.54,2.08,0.81,4.36,0.81,6.82v26.66l18.72-0.54
		c2.62,0,4.97,0.27,7.05,0.81C1649.4,971.3,1651.06,972.53,1652.29,974.46z M1779.2,975.61c-0.46-2.23-1.62-4.01-3.47-5.32
		c-1.85-1.31-4.93-1.96-9.25-1.96c-4.62,0-8.02,0.89-10.17,2.66c-2.16,1.77-3.24,4.36-3.24,7.74l1.39,6.7
		c-2.01-2.77-4.55-5.43-7.63-7.98c-3.08-2.54-6.82-4.66-11.21-6.36c-4.39-1.69-9.75-2.54-16.07-2.54c-7.09,0-13.83,1.5-20.23,4.51
		c-6.4,3.01-12.06,7.13-16.99,12.37c-4.93,5.24-8.82,11.21-11.67,17.92c-2.85,6.7-4.28,13.83-4.28,21.38
		c0,7.86,1.42,15.22,4.28,22.08c2.85,6.86,6.7,12.95,11.56,18.26c4.85,5.32,10.48,9.48,16.88,12.48c6.39,3.01,13.21,4.51,20.46,4.51
		c6.78,0,12.56-1.04,17.34-3.12c4.78-2.08,8.63-4.47,11.56-7.17c2.93-2.69,5.01-5.05,6.24-7.05l-1.62,7.63
		c0,2.93,1.08,5.24,3.24,6.94c2.16,1.69,5.47,2.54,9.94,2.54c4.31,0,7.43-0.62,9.36-1.85c1.93-1.23,3.12-2.93,3.58-5.09
		c0.46-2.16,0.69-4.54,0.69-7.17v-84.61C1779.89,980.35,1779.66,977.85,1779.2,975.61z M1747.88,1040.34
		c-2.54,4.55-5.89,8.13-10.06,10.75c-4.16,2.62-8.86,3.93-14.1,3.93c-5.7,0-10.83-1.31-15.37-3.93c-4.55-2.62-8.13-6.16-10.75-10.63
		c-2.62-4.47-3.93-9.48-3.93-15.03c0-5.7,1.27-10.82,3.81-15.37c2.54-4.54,6.05-8.17,10.52-10.86c4.47-2.69,9.55-4.05,15.26-4.05
		c5.24,0,9.98,1.27,14.22,3.81c4.24,2.54,7.67,6.05,10.29,10.52c2.62,4.47,3.93,9.71,3.93,15.72
		C1751.69,1030.75,1750.42,1035.79,1747.88,1040.34z"/>
</g>
</svg>
